<?xml version="1.0" encoding="UTF-8" standalone="no"?>
<!-- Created with Inkscape (http://www.inkscape.org/) -->

<svg
   width="120"
   height="120"
   viewBox="0 0 120 120"
   version="1.1"
   id="svg1"
   xmlns="http://www.w3.org/2000/svg"
   xmlns:svg="http://www.w3.org/2000/svg">
  <defs
     id="defs1" />
  <g
     id="g2"
     transform="matrix(5.9192138,0,0,5.8274865,5678.2916,445.87068)">
    <rect
       style="fill:#000000;fill-opacity:1;stroke:#9000a6;stroke-width:0.104841;stroke-dasharray:none;stroke-opacity:1"
       id="rect20"
       width="0.55554324"
       height="5.5035958"
       x="1044.5575"
       y="299.07101"
       transform="matrix(-0.93546245,-0.35342609,0.06676329,0.99776884,0,0)"
       ry="0.076426603" />
    <rect
       style="fill:#000000;fill-opacity:1;stroke:#9000a6;stroke-width:0.104841;stroke-linecap:round;stroke-miterlimit:4.6;stroke-dasharray:none;stroke-opacity:1;paint-order:normal"
       id="rect20-6"
       width="0.47952372"
       height="5.4366403"
       x="-1029.8367"
       y="-230.51401"
       transform="matrix(0.95847851,0.28516478,-0.1384198,-0.99037365,0,0)"
       ry="0.17500722"
       rx="0" />
    <rect
       style="fill:#000000;fill-opacity:1;stroke:#9000a6;stroke-width:0.104841;stroke-linecap:round;stroke-miterlimit:4.6;stroke-dasharray:none;stroke-opacity:1;paint-order:normal"
       id="rect20-6-6"
       width="0.47952372"
       height="5.4366403"
       x="1046.7096"
       y="353.24762"
       transform="matrix(-0.91432018,-0.40499211,0.0110736,0.99993869,0,0)"
       ry="0.17500722"
       rx="0" />
    <rect
       style="fill:#000000;fill-opacity:1;stroke:#9000a6;stroke-width:0.0711675;stroke-linecap:round;stroke-miterlimit:4.6;stroke-dasharray:none;stroke-opacity:1;paint-order:normal"
       id="rect20-6-6-2"
       width="0.47969154"
       height="2.504247"
       x="-82.42173"
       y="-974.21112"
       transform="matrix(-0.25148842,0.96786031,0.99995737,-0.00923345,0,0)"
       ry="0.080612518"
       rx="0" />
    <rect
       style="fill:#000000;fill-opacity:1;stroke:#9000a6;stroke-width:0.104841;stroke-linecap:round;stroke-miterlimit:4.6;stroke-dasharray:none;stroke-opacity:1;paint-order:normal"
       id="rect20-6-9"
       width="0.47952372"
       height="5.4366403"
       x="1048.1152"
       y="510.73737"
       transform="matrix(-0.83584096,-0.54897166,-0.15249214,0.98830468,0,0)"
       ry="0.17500722"
       rx="0" />
    <rect
       style="fill:#000000;fill-opacity:1;stroke:#9000a6;stroke-width:0.104841;stroke-linecap:round;stroke-miterlimit:4.6;stroke-dasharray:none;stroke-opacity:1;paint-order:normal"
       id="rect20-6-3"
       width="0.47952372"
       height="5.4366403"
       x="1033.6051"
       y="612.37079"
       transform="matrix(-0.76853433,-0.63980856,-0.26307213,0.96477617,0,0)"
       ry="0.17500722"
       rx="0" />
    <rect
       style="fill:#000000;fill-opacity:1;stroke:#9000a6;stroke-width:0.0711675;stroke-linecap:round;stroke-miterlimit:4.6;stroke-dasharray:none;stroke-opacity:1;paint-order:normal"
       id="rect20-6-6-2-7"
       width="0.47969154"
       height="2.504247"
       x="-80.054955"
       y="-973.5932"
       transform="matrix(-0.25148842,0.96786031,0.99995737,-0.00923345,0,0)"
       ry="0.080612518"
       rx="0" />
    <rect
       style="fill:#000000;fill-opacity:1;stroke:#9000a6;stroke-width:0.0711675;stroke-linecap:round;stroke-miterlimit:4.6;stroke-dasharray:none;stroke-opacity:1;paint-order:normal"
       id="rect20-6-6-2-2"
       width="0.47969154"
       height="2.504247"
       x="-77.283875"
       y="-972.78802"
       transform="matrix(-0.25148842,0.96786031,0.99995737,-0.00923345,0,0)"
       ry="0.080612518"
       rx="0" />
    <rect
       style="fill:#000000;fill-opacity:1;stroke:#9000a6;stroke-width:0.111376;stroke-linecap:round;stroke-miterlimit:4.6;stroke-dasharray:none;stroke-opacity:1;paint-order:normal"
       id="rect20-6-6-9-4"
       width="0.51500249"
       height="5.7128563"
       x="920.64758"
       y="-70.830299"
       transform="matrix(-0.99997611,-0.0069123,0.41764027,0.90861246,0,0)"
       ry="0.18389872"
       rx="0" />
    <rect
       style="fill:#000000;fill-opacity:1;stroke:#9000a6;stroke-width:0.100954;stroke-linecap:round;stroke-miterlimit:4.6;stroke-dasharray:none;stroke-opacity:1;paint-order:normal"
       id="rect20-6-6-9-6"
       width="0.48817533"
       height="5.1076226"
       x="1076.0238"
       y="432.86337"
       transform="matrix(-0.88387299,-0.46772699,0.00992733,0.99995072,0,0)"
       ry="0"
       rx="0" />
    <rect
       style="fill:#000000;fill-opacity:1;stroke:#9000a6;stroke-width:0.0302967;stroke-linecap:round;stroke-miterlimit:4.6;stroke-dasharray:none;stroke-opacity:1;paint-order:normal"
       id="rect20-6-6-9-6-3"
       width="0.46951205"
       height="0.46368167"
       x="943.14917"
       y="-33.718987"
       transform="matrix(-0.99919146,-0.04020481,0.12946626,0.99158383,0,0)"
       ry="0.014926064"
       rx="0" />
    <rect
       style="fill:#000000;fill-opacity:1;stroke:#9000a6;stroke-width:0.104841;stroke-linecap:round;stroke-miterlimit:4.6;stroke-dasharray:none;stroke-opacity:1;paint-order:normal"
       id="rect20-6-6-9-4-1"
       width="0.52355337"
       height="5.4510355"
       x="1037.7505"
       y="342.60666"
       transform="matrix(-0.91719502,-0.39843857,0.0182292,0.99983383,0,0)"
       ry="0.13569497"
       rx="0.26177669" />
    <rect
       style="fill:#000000;fill-opacity:1;stroke:#9000a6;stroke-width:0.104841;stroke-linecap:round;stroke-miterlimit:4.6;stroke-dasharray:none;stroke-opacity:1;paint-order:normal"
       id="rect20-6-6-9-4-1-7"
       width="0.52355337"
       height="5.4510355"
       x="1035.5481"
       y="341.66776"
       transform="matrix(-0.91719502,-0.39843857,0.0182292,0.99983383,0,0)"
       ry="0.13569497"
       rx="0.26177669" />
    <path
       style="opacity:1;fill:#000000;fill-opacity:1;stroke:#9000a6;stroke-width:0.0876976;stroke-linecap:round;stroke-linejoin:round;stroke-miterlimit:4.6;stroke-dasharray:none;stroke-opacity:1;paint-order:markers fill stroke"
       id="path23"
       d="m -943.67015,-66.018982 a 1.2311063,0.39087409 0 0 1 -0.20052,0.502426 1.2311063,0.39087409 0 0 1 -1.59411,0.01787 1.2311063,0.39087409 0 0 1 -0.31159,-0.496687 l 1.07556,0.190178 z" />
    <rect
       style="fill:#000000;fill-opacity:1;stroke:#9000a6;stroke-width:0.104841;stroke-linecap:round;stroke-miterlimit:4.6;stroke-dasharray:none;stroke-opacity:1;paint-order:normal"
       id="rect20-6-93"
       width="0.47952372"
       height="5.4366403"
       x="-1035.426"
       y="-349.64865"
       transform="matrix(0.91611452,0.40091669,-0.01552614,-0.99987946,0,0)"
       ry="0.17500722"
       rx="0" />
    <rect
       style="fill:#000000;fill-opacity:1;stroke:#9000a6;stroke-width:0.101983;stroke-linecap:round;stroke-miterlimit:4.6;stroke-dasharray:none;stroke-opacity:1;paint-order:normal"
       id="rect20-6-93-2"
       width="0.44758937"
       height="5.5113082"
       x="-941.41858"
       y="10.222017"
       transform="matrix(0.99825296,0.05908484,-0.21756965,-0.9760448,0,0)"
       ry="0.17741081"
       rx="0" />
    <rect
       style="fill:#000000;fill-opacity:1;stroke:#9000a6;stroke-width:0.113929;stroke-linecap:round;stroke-miterlimit:4.6;stroke-dasharray:none;stroke-opacity:1;paint-order:normal"
       id="rect20-6-93-4"
       width="0.58191586"
       height="5.2902865"
       x="-1214.6842"
       y="-900.3111"
       transform="matrix(0.62566653,0.78009063,0.20213892,-0.97935686,0,0)"
       ry="0.17029606"
       rx="0" />
    <rect
       style="fill:#000000;fill-opacity:1;stroke:#9000a6;stroke-width:0.105856;stroke-linecap:round;stroke-miterlimit:4.6;stroke-dasharray:none;stroke-opacity:1;paint-order:normal"
       id="rect20-6-93-7"
       width="0.48025382"
       height="5.5339713"
       x="-1036.1345"
       y="-356.7724"
       transform="matrix(0.91321605,0.40747571,-0.01522796,-0.99988405,0,0)"
       ry="0.17814034"
       rx="0" />
    <rect
       style="fill:#000000;fill-opacity:1;stroke:#9000a6;stroke-width:0.111563;stroke-linecap:round;stroke-miterlimit:4.6;stroke-dasharray:none;stroke-opacity:1;paint-order:normal"
       id="rect20-6-6-9-4-8"
       width="0.519081"
       height="5.6869907"
       x="972.93616"
       y="-68.667931"
       transform="matrix(-0.99997551,-0.00699869,-0.36381747,0.93147026,0,0)"
       ry="0.18306611"
       rx="0" />
    <text
       xml:space="preserve"
       style="font-size:3.175px;opacity:1;fill:#000000;fill-opacity:1;stroke:#9000a6;stroke-width:0.1;stroke-linecap:round;stroke-linejoin:round;stroke-miterlimit:4.6;stroke-dasharray:none;stroke-opacity:1;paint-order:markers fill stroke"
       x="-952.83716"
       y="-62.850281"
       id="text35"><tspan
         id="tspan35"
         style="stroke-width:0.1"
         x="-952.83716"
         y="-62.850281">linux</tspan></text>
    <rect
       style="opacity:1;fill:#000000;fill-opacity:1;stroke:#9000a6;stroke-width:0.130935;stroke-linecap:round;stroke-linejoin:round;stroke-miterlimit:4.6;stroke-dasharray:none;stroke-opacity:1;paint-order:markers fill stroke"
       id="rect37"
       width="16.836973"
       height="0.19868957"
       x="-957.3382"
       y="-65.514328"
       ry="0.099344783" />
  </g>
</svg>
